<?xml version="1.0" standalone="no"?>
<!DOCTYPE svg PUBLIC "-//W3C//DTD SVG 20010904//EN"
 "http://www.w3.org/TR/2001/REC-SVG-20010904/DTD/svg10.dtd">
<svg version="1.0" xmlns="http://www.w3.org/2000/svg"
 width="500.000000pt" height="500.000000pt" viewBox="0 0 500.000000 500.000000"
 preserveAspectRatio="xMidYMid meet">
<metadata>
Created by potrace 1.11, written by Peter Selinger 2001-2013
</metadata>
<g transform="translate(0.000000,500.000000) scale(0.100000,-0.100000)"
fill="#000000" stroke="none">
<path d="M820 4133 c-75 -9 -91 -15 -100 -36 -8 -17 -62 -409 -86 -617 -4 -39
-23 -188 -30 -238 -5 -38 -42 -346 -50 -412 -9 -81 -38 -315 -49 -400 -3 -19
-14 -110 -25 -202 -11 -92 -22 -185 -25 -205 -2 -21 -14 -114 -25 -208 -19
-163 -23 -191 -34 -280 -27 -208 -57 -455 -58 -478 -1 -19 10 -39 33 -63 l34
-35 341 2 c429 3 411 1 423 48 5 20 12 56 15 81 3 25 8 63 11 85 29 229 45
360 50 410 3 33 8 71 10 85 3 14 7 52 10 85 3 33 8 71 10 85 5 28 33 265 42
355 3 33 9 69 14 80 7 18 8 18 9 -5 1 -14 3 -32 5 -40 7 -34 16 -104 70 -545
7 -50 13 -100 19 -145 5 -36 42 -341 52 -420 10 -84 16 -102 48 -130 l31 -29
417 2 c356 2 419 4 432 17 13 13 40 154 60 320 3 25 19 151 36 280 16 129 32
255 35 280 3 25 7 61 10 80 5 41 13 97 20 160 3 25 35 281 70 570 36 289 70
563 76 610 5 47 12 96 14 110 2 14 6 50 10 80 9 82 14 118 24 195 6 39 13 97
17 130 3 33 12 101 18 152 13 101 10 117 -28 158 l-26 28 -353 1 c-414 1 -411
2 -426 -78 -8 -42 -33 -235 -57 -436 -12 -102 -15 -127 -19 -160 -2 -19 -7
-56 -10 -82 -9 -80 -16 -139 -25 -218 -5 -41 -12 -102 -16 -135 -3 -33 -8 -67
-9 -75 -2 -8 -6 -46 -10 -83 -4 -38 -11 -65 -15 -60 -9 9 -35 185 -80 543 -17
135 -33 261 -35 280 -2 19 -11 89 -20 155 -9 66 -18 136 -20 155 -14 119 -16
125 -51 159 l-34 34 -363 1 c-199 1 -373 0 -387 -1z"/>
<path d="M3090 4130 c-30 -3 -61 -9 -67 -13 -19 -12 -30 -66 -53 -257 -11 -96
-22 -188 -25 -205 -2 -16 -7 -52 -10 -80 -3 -27 -10 -86 -16 -130 -5 -44 -12
-96 -14 -115 -2 -19 -7 -53 -9 -75 -12 -93 -47 -383 -66 -545 -12 -96 -23
-186 -25 -200 -2 -14 -6 -47 -9 -75 -4 -27 -24 -201 -46 -385 -23 -184 -43
-353 -45 -375 -3 -22 -7 -56 -10 -75 -2 -19 -7 -56 -10 -82 -7 -65 -12 -111
-30 -258 -30 -255 -30 -232 7 -269 l33 -32 369 2 c316 2 371 5 388 18 14 12
22 42 34 121 18 133 22 156 34 260 6 47 13 99 15 115 4 28 20 152 30 235 9 74
26 206 30 235 2 17 7 58 11 91 3 34 9 66 13 71 3 6 83 13 176 17 196 7 222 10
330 37 305 74 553 323 669 671 47 140 58 220 58 418 1 159 -2 197 -21 269 -42
158 -114 284 -224 393 -130 127 -260 189 -447 213 -67 9 -992 13 -1070 5z
m840 -775 c65 -33 85 -201 42 -341 -37 -119 -130 -203 -226 -204 l-38 0 6 63
c10 95 17 160 52 442 3 21 8 43 10 47 9 14 124 9 154 -7z"/>
</g>
</svg>
